<?xml version="1.0" encoding="utf-8"?>
<!-- Generator: Adobe Illustrator 27.1.0, SVG Export Plug-In . SVG Version: 6.00 Build 0)  -->
<svg version="1.1" id="Layer_1" xmlns="http://www.w3.org/2000/svg" xmlns:xlink="http://www.w3.org/1999/xlink" x="0px" y="0px"
	 viewBox="0 0 873.99 239.99" style="enable-background:new 0 0 873.99 239.99;" xml:space="preserve">
<style type="text/css">
	.st0{fill:#FCCD13;}
	.st1{fill:#F45EAC;}
	.st2{fill:#1B6DAF;}
	.st3{fill:#235378;}
	.st4{fill:#26ABBE;}
</style>
<g>
	<g>
		<g>
			<path class="st0" d="M151.83,10.51c1-0.84,3.27-0.73,3.33,0.84c0.4,1.78-1.56,2.67-2.71,3.66c-1.98,1.33-3.61,3.11-5.73,4.23
				c-2.33,0.91-4.41,2.27-6.32,3.82c-3.74,2.98-7.79,5.59-11.39,8.72c-10.62-0.87-21.28,0.23-31.66,2.33
				c8.79-6.04,18-11.49,26.84-17.46c4.83-0.33,9.66,0.4,14.38,1.32c1.25,0.1,2.74,0.63,3.83-0.24
				C145.6,15.41,148.57,12.77,151.83,10.51z"/>
			<path class="st0" d="M22.11,82.2c7.11-4.53,14.13-9.18,21.33-13.57c-6.03,8.3-11.12,17.28-14.23,26.97
				c-1.67,4.36-2.28,8.99-3.64,13.43C19.5,112.86,14,117.47,8.2,121.67c-0.23-11.58,2.11-23.09,6.01-34.02
				C16.62,85.55,19.44,83.97,22.11,82.2z"/>
			<path class="st0" d="M215.02,107.52c4.15-2.99,7.59-6.75,11.67-9.81c1.68,6.08,2.7,12.31,3.11,18.59
				c0.42-0.3,0.85-0.59,1.28-0.89c2.07-1.33,3.91-2.96,5.96-4.32c0.99-0.74,3.16-0.62,3.27,0.88c0.46,1.78-1.55,2.62-2.66,3.61
				c-2.22,1.45-4.02,3.59-6.57,4.49c-2.64,0.46-4.34,2.55-6.25,4.14c-2.92,2.46-5.84,4.91-8.8,7.32
				C216.66,123.51,216.21,115.46,215.02,107.52z"/>
			<path class="st0" d="M85.59,220.76c3.5-2.86,6.68-6.08,10.42-8.66c6.53,1.71,13.3,2.37,20.01,3.17
				c-4.73,4.29-9.62,8.46-14.69,12.37c-2.71,0.27-5.33-0.93-7.94-1.48c-1.8-0.35-3.78-1.43-5.53-0.39c-2.97,2.77-6.01,5.5-9.24,7.99
				c-1.27,1.37-3.5-0.17-3.26-1.7c2.08-2.89,5.63-4.52,7.66-7.46C83.66,223.19,84.31,221.74,85.59,220.76z"/>
		</g>
		<g>
			<path class="st1" d="M55.37,35.67C71.12,25.05,89.83,18.51,109,16.77c5.06-0.07,10.15-0.93,15.18-0.12
				c-8.84,5.96-18.06,11.42-26.84,17.46c-1.88,0.62-3.78,1.18-5.69,1.72c-19.21,5.63-36.1,17.53-48.21,32.81
				c-7.2,4.39-14.22,9.04-21.33,13.57c-2.67,1.77-5.49,3.35-7.9,5.45c1.93-5.13,4.72-9.92,6.8-14.98c-1.94,1.22-3.58,2.82-5.58,3.95
				c-1.62,0.62-3.35-1.54-2.09-2.83c4.97-4.84,11.13-8.48,15.91-13.5C36.54,50.83,45.33,42.43,55.37,35.67z"/>
			<path class="st1" d="M197.61,20.37c1.64-1.58,4.4,1.02,2.63,2.53c-2.65,2.5-5.8,4.46-8.65,6.75c-2.65,2.2-5.89,3.85-7.83,6.75
				c-3.38,3.71-8.03,6.05-11.71,9.47c-4.46-2.61-9.1-4.93-13.82-7.08c4.31-3.61,9.64-5.88,13.85-9.6c2.6,1.44,5.12,3,7.79,4.31
				C186.03,29.42,191.57,24.57,197.61,20.37z"/>
			<path class="st1" d="M204.14,78.56c3.33-3.2,6.79-6.26,10.4-9.17c0.35,0.12,1.05,0.36,1.4,0.48c3.2,4.95,5.45,10.37,8.13,15.57
				c3.29-2.21,5.81-5.34,9.22-7.38c1.6-0.91,3.61,1.46,2.27,2.74c-3.14,3.21-6.83,5.87-10.19,8.86c-0.45,2.74,0.85,5.38,1.32,8.04
				c-4.08,3.06-7.53,6.82-11.67,9.81C212.97,97.4,209.35,87.59,204.14,78.56z"/>
			<path class="st1" d="M8.7,134.15c5.42-3.21,10.66-6.7,15.95-10.11c0.14,9.5,1.89,18.95,4.79,28.01
				c-4.46,3.16-8.82,6.45-13.17,9.75c-0.7-1.06-1.38-2.14-2.07-3.21c-1.91,1.33-3.61,2.95-5.65,4.1c-1.6,1.01-3.57-1.57-2.18-2.8
				c1.9-2.14,4.75-3.35,6.46-5.66c-0.35-2.67-1.4-5.18-2.05-7.77C9.65,142.42,9.17,138.27,8.7,134.15z"/>
			<path class="st1" d="M53.2,208.64c4.23-3.21,7.98-6.96,12.2-10.19c9.3,6.16,19.67,10.87,30.61,13.65
				c-3.74,2.59-6.92,5.8-10.42,8.66c-1.28,0.98-1.94,2.44-2.58,3.83c-2.9-1.71-6.23-2.53-9.24-3.99
				C66.56,217.24,59.38,213.57,53.2,208.64z"/>
		</g>
		<g>
			<path class="st2" d="M140.4,23.06c1.91-1.54,4-2.91,6.32-3.82c3.32,1.57,7,2.21,10.47,3.39c5.11,1.87,10.15,3.95,14.91,6.56
				c-4.21,3.72-9.55,5.99-13.85,9.6c-4.44-1.65-8.95-3.14-13.55-4.33c-5.13-1.37-10.45-1.83-15.68-2.68
				C132.61,28.65,136.66,26.03,140.4,23.06z"/>
			<path class="st2" d="M187.45,57.62c4-2.77,7.62-6,11.62-8.77c6.51,6.29,12.18,13.4,16.88,21.02c-0.35-0.12-1.05-0.36-1.4-0.48
				c-3.61,2.9-7.08,5.96-10.4,9.17C199.69,70.85,193.99,63.81,187.45,57.62z"/>
			<path class="st2" d="M226.69,97.71c-0.48-2.67-1.77-5.3-1.32-8.04c2.97,8.33,4.62,17.02,5.71,25.74
				c-0.43,0.29-0.85,0.59-1.28,0.89C229.39,110.02,228.37,103.79,226.69,97.71z"/>
			<path class="st2" d="M8.2,121.67c5.8-4.19,11.3-8.81,17.37-12.63c-0.19,5-0.98,9.98-0.93,14.99
				c-5.28,3.42-10.53,6.91-15.95,10.11C8.13,130.01,8.33,125.83,8.2,121.67z"/>
			<path class="st2" d="M224.82,124.2c1.92-1.58,3.61-3.68,6.25-4.14c0.57,11.18-1.15,22.41-4.18,33.19
				c-0.48,0.28-0.97,0.56-1.45,0.84c0.85-3.46,2-6.87,2.22-10.45c-6.47,4.02-11.56,9.76-17.96,13.9c0.92-2.85,1.8-5.73,2.78-8.57
				c1.92-5.66,2.73-11.58,3.54-17.46C218.99,129.11,221.91,126.65,224.82,124.2z"/>
			<path class="st2" d="M219.94,167.16c0.83-1.91,1.88-3.77,3.47-5.21c-0.12,0.78-0.29,1.55-0.53,2.3
				c-9.15,21.52-25.93,39.95-46.92,51.58c-18.1,10.16-39.27,15.01-60.2,14.43c-9.42-0.65-18.83-1.99-27.91-4.51
				c1.75-1.04,3.73,0.04,5.53,0.39c2.61,0.55,5.24,1.75,7.94,1.48c5.07-3.91,9.96-8.08,14.69-12.37c5.58-0.14,11.21-0.08,16.75-0.93
				c3.22-0.49,6.45-0.89,9.68-1.31c-4.04,3.82-8.22,7.52-12.73,10.82c-1.79,1.35-3.34,2.95-4.8,4.62c1.67,0.36,3.4,0.54,5.1,0.27
				c17.99-1.99,35.64-7.73,50.72-17.41c8.57-5.31,15.98-12.12,22.79-19.35C210.29,184.57,215.78,176.16,219.94,167.16z"/>
			<path class="st2" d="M39.73,172.69c6.65,10.11,15.49,18.87,25.68,25.76c-4.22,3.23-7.97,6.98-12.2,10.19
				c-0.93-0.57-1.88-1.14-2.82-1.69c-6.75,5.6-13.33,11.39-20.06,17.02c-0.95,1.1-3.62,1.22-3.72-0.57
				c-0.35-1.41,0.99-2.27,1.91-3.1c4.62-3.85,9.15-7.78,13.74-11.66c1.55-1.33,3.25-2.56,4.54-4.14c0.05-0.81-0.83-1.26-1.29-1.82
				c-6.84-5.84-13.02-12.44-18.06-19.78C31.3,179.23,36.23,176.71,39.73,172.69z"/>
		</g>
		<g>
			<g>
				<path class="st3" d="M97.34,34.1c10.38-2.1,21.05-3.19,31.66-2.33c5.23,0.86,10.55,1.31,15.68,2.68
					c4.6,1.2,9.12,2.68,13.55,4.33c4.73,2.14,9.36,4.47,13.82,7.08c5.5,3.46,10.64,7.4,15.39,11.75
					c6.55,6.19,12.24,13.23,16.69,20.94c5.21,9.03,8.83,18.84,10.88,28.96c1.19,7.94,1.64,15.99,1,23.99
					c-0.8,5.87-1.62,11.8-3.54,17.46c-0.98,2.84-1.85,5.72-2.78,8.57c-3.86,7.72-7.88,15.46-13.6,22.1
					c-9.92,12.55-23.48,22.34-38.63,28.37c-4.83,2.16-10.06,3.23-15.04,5.01c-3.23,0.42-6.46,0.82-9.68,1.31
					c-5.54,0.85-11.16,0.78-16.75,0.93c-6.71-0.8-13.47-1.46-20.01-3.17c-10.94-2.78-21.31-7.49-30.61-13.65
					c-10.19-6.89-19.03-15.65-25.68-25.76c-4.27-6.46-7.69-13.41-10.29-20.64c-2.9-9.07-4.65-18.51-4.79-28.01
					c-0.05-5.01,0.74-9.99,0.93-14.99c1.36-4.44,1.97-9.07,3.64-13.43c3.11-9.69,8.2-18.68,14.23-26.97
					c12.11-15.28,29-27.18,48.21-32.81C93.56,35.28,95.46,34.72,97.34,34.1z M112.79,69.3c-4.93,1.12-9.98,1.97-14.59,4.09
					c-18.12,7.16-31.36,24.01-34,42.58c-3.57,1.08-6.59,4.34-6.1,8.09c0.27,3.34,3.12,5.73,6.21,6.87
					c1.84,11.62,7.43,22.71,16.24,30.95c8.63,8.32,20.15,13.61,32.2,15.42c1.23,4.46,6.81,7.36,11.2,5.06
					c2.32-0.78,3.07-3.14,4.36-4.89c4.99-1.12,10.1-2.01,14.76-4.17c17.82-7.29,31.11-23.86,33.69-42.29
					c2.26-1.2,4.8-2.48,5.62-5.03c1.84-4.15-1.2-8.82-5.5-10.03c-1.02-4.14-1.66-8.41-3.46-12.33
					c-5.85-14.89-19.02-26.99-34.8-31.95c-3.4-1.06-6.92-1.72-10.4-2.46c-1.13-2.46-2.97-4.87-5.88-5.45
					C118.19,62.6,114.03,65.55,112.79,69.3z"/>
			</g>
			<path class="st3" d="M118.76,67.68c2.6-1.12,6.04,0.7,5.56,3.63c0.09,3.19-4.76,4.42-6.72,2.14
				C116.06,71.74,116.47,68.58,118.76,67.68z"/>
			<g>
				<path class="st3" d="M68.5,116.28c2.55-21.69,22.01-40.14,44.56-42.76c1.14,1.82,2.48,3.7,4.66,4.44
					c4,1.66,8.63-0.88,10.31-4.49c11.31,1.2,21.9,6.64,29.96,14.23c7.89,7.71,13.21,17.87,14.66,28.59
					c-3.41,1.39-6.04,4.93-5.1,8.57c0.48,2.72,2.86,4.49,5.18,5.8c-2.54,17.88-15.98,33.97-33.76,40.02
					c-3.41,1.38-7.01,2.5-10.75,2.44c-1.19-0.83-1.66-2.34-2.82-3.23c-2.09-1.52-5.03-2.29-7.51-1.16
					c-2.26,0.65-3.62,2.61-4.88,4.38c-12.26-1.41-23.67-7.58-31.9-16.31c-6.69-7.33-11.21-16.48-12.66-26.14
					c2.22-1.39,4.66-3.07,5.04-5.78C74.42,121.26,71.88,117.72,68.5,116.28z M130.51,96.52c-5.32,2.1-9.93,5.43-14.74,8.38
					c-5.26,0.01-10.46-0.96-15.7-1.11c-1.21-0.16-1.87,0.99-2.48,1.76c-4.52,6.75-9.01,13.52-13.56,20.25
					c-0.72,1-1.44,2.67-0.05,3.48c2.71,0.48,4.98-1.45,7.37-2.33c3.18-1.23,6.12-3.03,9.42-3.96c1.84,0.82,2.98,2.63,4.41,3.95
					c-2.19,1.37-4.68,2.2-6.87,3.53c-1.05,0.77-0.79,2.35,0.2,3.06c3.42,3.48,7.09,6.73,10.51,10.21c1.29,1.09,2.61,3.1,4.6,2.17
					c1.47-2.25,2.41-4.78,4.04-6.94c1.35,1.37,3.31,2.43,4.08,4.2c-1.88,5.15-4.94,9.86-6.89,14.99c0.06,1.57,1.85,2.63,3.2,1.51
					c7.35-4.46,14.61-9.07,21.97-13.54c0.79-0.57,1.94-1.21,1.83-2.31c-0.28-5.02-0.89-10.03-1.08-15.05
					c1.24-2.47,3.29-4.47,4.67-6.87c3.72-6.01,7.25-12.73,6.76-19.91c-0.17-3.74-3.03-7.13-6.84-8
					C140.28,93.11,135.05,94.35,130.51,96.52z M96.26,135.54c-1.94,1.4-3.64,3.12-5.21,4.89c-1.24,1.34,0.18,3.95,2.09,2.89
					c2.06-1.39,3.81-3.17,5.44-5c0.88-0.77,0.15-1.95,0.06-2.87C97.84,135.43,97.05,135.46,96.26,135.54z M101.62,140.12
					c-1.49,0.62-2.46,1.99-3.63,3.02c-2.52,2.6-5.38,4.89-7.73,7.63c-1.25,1.58,0.95,3.8,2.6,2.48c3.28-2.72,6.16-5.86,9.27-8.75
					c0.75-0.91,2.1-1.76,1.83-3.08C103.6,140.52,102.65,139.8,101.62,140.12z M102.26,148.51c-0.73,0.91-2.17,1.79-1.76,3.11
					c0.12,1.34,2.2,1.56,3.12,0.84c1.74-1.37,3.34-2.93,4.78-4.59c0.93-1,0.08-2.27-0.33-3.29
					C105.46,144.65,104,146.98,102.26,148.51z"/>
			</g>
			<g>
				<path class="st3" d="M125.74,103.06c5.29-2.88,11-6.01,17.32-5.54c2.64-0.18,5.06,2.01,5.2,4.5c0.3,2.84-0.16,5.73-1.25,8.38
					c-2.14,5.22-5.05,10.15-8.57,14.62c-4.16,5.3-8.67,10.41-13.9,14.76c-1.32-0.51-2.18-1.72-3.21-2.6
					c-5.68-5.64-11.54-11.1-17.17-16.78C110.5,113.75,117.69,107.77,125.74,103.06z M121.51,111.62c-2.57,1.1-5.64,2.33-6.63,5.09
					c-1.4,3.46-0.91,7.79,1.9,10.49c4.05,4.47,12.67,3.98,15.83-1.22c2.84-3.93,2.13-9.86-1.85-12.83
					C128.25,111.04,124.61,110.91,121.51,111.62z"/>
			</g>
			<path class="st3" d="M90.83,122.97c2.98-5.31,6.74-10.18,9.95-15.36c3.44,0.2,6.86,0.51,10.3,0.71
				c-2.22,2.33-4.75,4.36-6.98,6.68c-1.83,1.77-3.45,3.89-5.92,4.88C95.73,120.92,93.36,122.12,90.83,122.97z"/>
			<path class="st3" d="M122.21,114.85c4.34-1.47,9.18,2.43,8.13,6.79c-0.46,4.68-7.23,6.68-10.48,3.25
				C116.33,122.04,117.97,116.18,122.21,114.85z"/>
			<path class="st3" d="M64.25,120.01c2.24-0.78,5.39,0.33,5.47,2.9c0.52,2.87-3.01,4.9-5.59,3.78
				C61.27,125.57,61.38,121.07,64.25,120.01z"/>
			<path class="st3" d="M173.36,120.03c2.52-1.07,5.97,0.63,5.61,3.49c0.21,2.72-3.34,4.38-5.65,3.06
				C170.56,125.45,170.71,121.21,173.36,120.03z"/>
			<path class="st3" d="M103.06,132.56c1.66-1.02,3.39-1.91,5.17-2.72c2.17,2.02,4.37,4,6.42,6.15c-0.83,1.7-1.77,3.34-2.88,4.89
				C108.74,138.22,105.82,135.46,103.06,132.56z"/>
			<path class="st3" d="M126.65,143.14c3.63-3.12,6.84-6.65,10.29-9.95c0.38,3.27,1.04,6.59,0.71,9.86
				c-5.33,3.43-10.75,6.73-16.19,9.98C123.26,149.78,124.22,146.03,126.65,143.14z"/>
			<path class="st3" d="M118.8,172.3c1.84-0.58,4.16-0.26,5.13,1.54c1.65,2.59-0.89,6.17-4.06,5.47
				C116.18,179.03,115.59,173.68,118.8,172.3z"/>
		</g>
		<path class="st4" d="M172.06,45.87c3.68-3.42,8.34-5.76,11.71-9.47c5.59,3.53,10.66,7.83,15.29,12.45c-4,2.77-7.62,6-11.62,8.77
			C182.69,53.27,177.55,49.32,172.06,45.87z"/>
		<path class="st4" d="M209.71,157.54c6.4-4.14,11.49-9.87,17.96-13.9c-0.22,3.57-1.36,6.98-2.22,10.45
			c0.48-0.28,0.96-0.56,1.45-0.84c3.62-2.21,6.31-5.57,9.89-7.84c1.21-1.1,3.07,0.27,2.9,1.69c0.1,0.82-0.79,1.31-1.25,1.88
			c-4.98,4.36-10.36,8.3-15.03,12.97c-1.59,1.44-2.65,3.29-3.47,5.21c-4.16,9-9.65,17.41-16.42,24.81
			c-6.81,7.23-14.22,14.04-22.79,19.35c-15.08,9.68-32.74,15.42-50.72,17.41c-1.7,0.27-3.43,0.08-5.1-0.27
			c1.46-1.67,3.01-3.27,4.8-4.62c4.51-3.3,8.69-7,12.73-10.82c4.98-1.78,10.21-2.85,15.04-5.01c15.15-6.04,28.71-15.82,38.63-28.37
			C201.83,173,205.85,165.26,209.71,157.54z"/>
		<path class="st4" d="M16.27,161.8c4.35-3.3,8.71-6.59,13.17-9.75c2.6,7.23,6.02,14.18,10.29,20.64c-3.5,4.02-8.42,6.54-12.29,10.2
			c-1.11-1.7-2.24-3.38-3.38-5.06c-4,2.28-6.88,5.94-10.73,8.43c-0.92,0.69-2.48-0.37-2.48-1.38c-0.27-1.22,0.89-2.01,1.66-2.77
			c3.04-2.59,6.19-5.08,9.16-7.74c-1.76-4.15-4.15-8.04-5.84-12.23L16.27,161.8z"/>
	</g>
	<path class="st4" d="M534.81,102.36c2.11-4.49,6.74-7.39,11.48-7.82c6.79-0.61,14.16-0.06,19.88,4.2
		c-0.79,1.58-1.58,3.17-2.37,4.75c-5.87-3.45-13.15-5.53-19.7-2.94c-4.93,2.1-6.8,9.98-2.13,13.39c5.81,4.15,13.55,2.92,19.71,6.34
		c9.1,4.17,10.34,18.88,2.62,25.06c-4.53,3.74-10.55,4.79-16.19,4.61c-5.17-0.25-10.47-1.25-15.01-3.93c-2.05-1.42,0.25-4,0.48-5.87
		c4.72,1.76,9.41,4.05,14.53,4.13c4.18,0.15,8.82-0.14,12.21-3.01c4.59-3.86,4.13-12.56-1.15-15.56
		c-5.92-2.88-12.71-2.91-18.73-5.46C534.08,117.3,531.78,108.64,534.81,102.36z"/>
	<g>
		<path class="st4" d="M610.37,94.71c8.28-1.25,17.31,0.1,23.85,5.88c11.9,9.77,12.59,30.6,1.65,41.4
			c-10.4,10.44-28.65,10.63-39.3,0.5c-10.95-10.17-11.09-30.24-0.19-40.49C600.22,98.22,605.13,95.56,610.37,94.71z M610.33,100.23
			c-5.89,1.53-11.19,5.76-13.8,11.49c-4.15,9.4-2.33,22.09,6.09,28.35c7.99,6.28,20.19,5.91,27.8-0.87
			c9.89-8.58,9.59-26.77-0.75-34.86C624.31,99.92,616.93,98.43,610.33,100.23z"/>
	</g>
	<path class="st4" d="M327.8,95.5c2.82-0.07,5.64-0.09,8.45-0.11c0.04,17.77-0.05,35.55,0.06,53.33c-1.99,0.05-3.97,0.06-5.96,0.01
		c0.07-9.26,0.06-18.54,0-27.8c-0.02-6.14,0.42-12.3-0.17-18.43c-3.08,3.11-5.07,7.12-7.58,10.7c-3.23,4.66-6.2,9.51-9.4,14.2
		c-0.61,0.99-2.07,2.55-3.12,1.15c-6.46-8.26-11.13-17.95-17.76-26.07c-0.04,15.46,0.13,30.93-0.04,46.4c-1.97,0-3.94-0.01-5.9-0.04
		c-0.22-17.73-0.15-35.47-0.02-53.19c2.85-0.17,5.71-0.18,8.55,0.04c5.52,8.27,10.54,16.95,16.53,24.86
		C317,112.27,322.46,103.92,327.8,95.5z"/>
	<g>
		<path class="st4" d="M358.96,95.39c6.41,0.11,12.81,0.01,19.22,0.05c4.81-0.11,9.52,1.93,13.24,5c7.46,6.33,6.08,20.3-2.49,24.94
			c-7.33,4.82-16.23,2.28-24.33,3.43c0.04,6.67,0.17,13.36-0.06,20.02c-1.94-0.02-3.89-0.04-5.83-0.08
			c-0.29-12.15-0.04-24.31-0.13-36.46C358.57,106.66,358.37,101.01,358.96,95.39z M364.89,100.6c-0.32,7.49-0.21,14.99-0.05,22.5
			c6.67-0.09,13.76,1.07,20.06-1.84c6.79-3.25,7.14-14.77,0.51-18.41C379.09,99.57,371.71,100.6,364.89,100.6z"/>
	</g>
	<path class="st4" d="M453.33,95.43c2-0.01,4-0.02,6-0.06c0.52,5.95,0.14,11.93,0.29,17.89c0.03,7.06,0.3,14.23-1.11,21.18
		c-1.31,6.22-5.65,11.7-11.47,13.87c-7.73,2.93-17.16,2.09-23.65-3.44c-5.01-4.48-6.79-11.58-6.8-18.21
		c0-10.36-0.12-20.71,0.08-31.06c1.96-0.04,3.93-0.04,5.89,0.01c0.22,10.37,0,20.74,0.09,31.12c0.18,5.15,1.52,10.75,5.28,14.37
		c6.49,5.37,17.56,4.56,22.43-2.72c2.83-4.25,3.19-9.59,3.05-14.59C453.29,114.34,453.5,104.89,453.33,95.43z"/>
	<path class="st4" d="M713.36,95.37c1.81,0.06,3.63,0.11,5.45,0.2c4.7,15.64,9.35,31.3,14.1,46.93c0.22,0,0.67,0,0.9,0
		c4.45-15.73,9.42-31.31,13.86-47.04c2.02-0.03,4.05-0.04,6.08-0.05c-4.84,17.87-10.89,35.37-16.01,53.17
		c-2.97,0.33-5.94,0.34-8.91,0.1c-4.09-14.09-8.34-28.14-12.51-42.2c-1.53,2.81-2.18,5.98-3.02,9.04
		c-3.19,11.07-6.45,22.09-9.65,33.15c-2.96,0.27-5.93,0.26-8.88-0.11c-5.22-17.7-11.19-35.15-16.3-52.88
		c2.03-0.13,4.07-0.19,6.12-0.26c5.36,15.75,9.62,31.9,14.74,47.73c1.73-3.71,2.4-7.78,3.58-11.68
		C706.55,119.5,709.74,107.37,713.36,95.37z"/>
	<path class="st4" d="M773.15,95.39c10.66,0.09,21.33,0.08,31.99,0c0,1.7,0,3.4,0.01,5.11c-8.64,0.02-17.28-0.13-25.9,0.08
		c-0.27,5.83-0.21,11.67,0.02,17.5c7.83,0.36,15.68,0.05,23.52,0.16c0.01,1.79,0.01,3.58-0.01,5.38c-7.84,0.09-15.7-0.13-23.54,0.08
		c-0.24,6.5-0.18,12.99-0.03,19.49c9.06,0.2,18.12,0.09,27.2,0.05c0.07,1.84,0.13,3.69,0.19,5.54c-11.22,0.13-22.44,0.14-33.65,0
		C772.97,130.99,772.54,113.17,773.15,95.39z"/>
	<g>
		<path class="st4" d="M827.77,95.38c6.73,0.14,13.45,0,20.18,0.07c4.64,0,9.4,2.17,12.31,5.94c3.76,5.8,2.07,13.93-2.89,18.39
			c3.71,1.94,7.14,5.01,8.33,9.29c0.67,4.09,0.51,8.68-1.97,12.14c-3.17,5.14-9.22,7.43-14.87,7.62c-7.06,0.11-14.12,0.13-21.16-0.1
			C827.75,130.95,827.63,113.17,827.77,95.38z M833.69,100.47c-0.18,5.86-0.23,11.75,0.04,17.62c5.58,0.04,11.23,0.55,16.77-0.53
			c4.76-1.04,7.13-7.2,5.38-11.66c-1.22-3.34-4.66-5.26-7.96-5.46C843.17,100.17,838.43,100.35,833.69,100.47z M833.43,123.07
			c0.13,6.62,0.08,13.25,0.02,19.88c4.79,0.52,9.63,0.33,14.45,0.34c2.88,0.01,5.86-0.57,8.33-2.17c5.95-4.14,4.73-15.92-2.75-17.38
			C846.9,122.29,840.09,123.24,833.43,123.07z"/>
	</g>
	<path class="st4" d="M257.73,95.6c2-0.04,4-0.03,6,0.02c0.14,17.73,0.14,35.47,0,53.2c-2,0.01-4,0.01-6,0
		C257.53,131.08,257.57,113.34,257.73,95.6z"/>
	<path class="st4" d="M481.7,95.67c1.91-0.09,3.82-0.11,5.73-0.1c0.18,15.81,0.13,31.63,0.03,47.44c8.36,0.65,16.76,0.08,25.14,0.31
		c-0.03,1.73-0.03,3.48,0.01,5.22c-10.29,0.63-20.63,0.33-30.93,0.17C481.15,131.04,481.64,113.35,481.7,95.67z"/>
</g>
</svg>
